REM MD5 9b13f1af04abe4bea50f4d6d86ab8043
FILE "Euro Demo 99 (Europe).bin" BINARY
  TRACK 01 MODE2/2352
    INDEX 01 00:00:00
  TRACK 02 AUDIO
    INDEX 00 46:33:02
    INDEX 01 46:35:02
  TRACK 03 AUDIO
    INDEX 00 47:36:40
    INDEX 01 47:38:40
  TRACK 04 AUDIO
    INDEX 00 48:40:14
    INDEX 01 48:42:14
  TRACK 05 AUDIO
    INDEX 00 49:05:06
    INDEX 01 49:07:06
REM LEADOUT 52:08:38
